<?xml version="1.0" encoding="UTF-8"?>
<svg xmlns="http://www.w3.org/2000/svg" xmlns:xlink="http://www.w3.org/1999/xlink" width="55pt" height="55pt" viewBox="0 0 55 55" version="1.1">
<g id="surface747982">
<path style=" stroke:none;fill-rule:nonzero;fill:rgb(20.392157%,59.607843%,85.882353%);fill-opacity:1;" d="M 27.5 7.699219 C 16.582031 7.699219 7.699219 16.582031 7.699219 27.5 C 7.699219 38.417969 16.582031 47.300781 27.5 47.300781 C 38.417969 47.300781 47.300781 38.417969 47.300781 27.5 C 47.300781 16.582031 38.417969 7.699219 27.5 7.699219 Z M 27.5 8.800781 C 37.8125 8.800781 46.199219 17.1875 46.199219 27.5 C 46.199219 37.8125 37.8125 46.199219 27.5 46.199219 C 17.1875 46.199219 8.800781 37.8125 8.800781 27.5 C 8.800781 17.1875 17.1875 8.800781 27.5 8.800781 Z M 27.5 10.449219 C 18.097656 10.449219 10.449219 18.097656 10.449219 27.5 C 10.449219 36.902344 18.097656 44.550781 27.5 44.550781 C 36.902344 44.550781 44.550781 36.902344 44.550781 27.5 C 44.550781 22.703125 42.511719 18.101562 38.960938 14.875 C 38.847656 14.773438 38.675781 14.78125 38.570312 14.894531 C 38.46875 15.007812 38.476562 15.179688 38.589844 15.28125 C 42.027344 18.40625 44 22.859375 44 27.5 C 44 36.597656 36.597656 44 27.5 44 C 18.402344 44 11 36.597656 11 27.5 C 11 18.402344 18.402344 11 27.5 11 C 29.453125 11 31.363281 11.335938 33.179688 12.003906 C 33.324219 12.054688 33.480469 11.984375 33.535156 11.839844 C 33.585938 11.695312 33.511719 11.539062 33.371094 11.488281 C 31.492188 10.800781 29.515625 10.449219 27.5 10.449219 Z M 34.941406 12.179688 C 34.835938 12.171875 34.726562 12.230469 34.679688 12.332031 C 34.609375 12.46875 34.667969 12.632812 34.800781 12.699219 C 35.171875 12.882812 35.535156 13.078125 35.882812 13.285156 C 35.929688 13.3125 35.976562 13.324219 36.023438 13.324219 C 36.117188 13.324219 36.210938 13.277344 36.261719 13.191406 C 36.339844 13.058594 36.296875 12.890625 36.164062 12.8125 C 35.800781 12.597656 35.425781 12.394531 35.046875 12.207031 C 35.011719 12.191406 34.976562 12.179688 34.941406 12.179688 Z M 37.078125 13.488281 C 37.007812 13.5 36.945312 13.539062 36.902344 13.601562 C 36.8125 13.726562 36.84375 13.898438 36.96875 13.984375 C 37.148438 14.113281 37.332031 14.246094 37.507812 14.378906 C 37.558594 14.417969 37.617188 14.4375 37.675781 14.4375 C 37.757812 14.4375 37.839844 14.402344 37.894531 14.328125 C 37.984375 14.210938 37.964844 14.035156 37.84375 13.945312 C 37.660156 13.804688 37.472656 13.667969 37.28125 13.535156 C 37.21875 13.492188 37.148438 13.476562 37.078125 13.488281 Z M 36.613281 20.898438 C 36.257812 20.898438 35.898438 21.023438 35.625 21.28125 L 26.109375 30.835938 L 20.449219 25.109375 C 19.890625 24.597656 19.019531 24.640625 18.507812 25.199219 C 18.261719 25.472656 18.136719 25.824219 18.152344 26.191406 C 18.167969 26.558594 18.328125 26.894531 18.589844 27.132812 L 25.199219 33.742188 C 25.453125 33.972656 25.78125 34.101562 26.125 34.101562 C 26.476562 34.101562 26.8125 33.96875 27.074219 33.71875 L 37.519531 23.273438 C 37.785156 23.023438 37.9375 22.679688 37.949219 22.3125 C 37.960938 21.945312 37.828125 21.597656 37.574219 21.332031 C 37.320312 21.0625 36.980469 20.910156 36.613281 20.898438 Z M 36.597656 21.449219 C 36.816406 21.457031 37.023438 21.546875 37.175781 21.707031 C 37.324219 21.867188 37.40625 22.078125 37.398438 22.296875 C 37.394531 22.519531 37.300781 22.722656 37.136719 22.882812 L 26.691406 33.324219 C 26.386719 33.613281 25.867188 33.605469 25.578125 33.34375 L 18.96875 26.734375 C 18.808594 26.585938 18.710938 26.382812 18.699219 26.164062 C 18.691406 25.945312 18.765625 25.734375 18.914062 25.570312 C 19.078125 25.390625 19.304688 25.300781 19.53125 25.300781 C 19.726562 25.300781 19.917969 25.367188 20.070312 25.503906 L 25.914062 31.417969 C 25.964844 31.46875 26.035156 31.5 26.109375 31.5 C 26.183594 31.5 26.253906 31.472656 26.304688 31.417969 L 36.007812 21.675781 C 36.167969 21.523438 36.382812 21.441406 36.597656 21.449219 Z M 36.597656 21.449219 "/>
</g>
</svg>
