<?xml version="1.0" encoding="UTF-8"?>
<svg xmlns="http://www.w3.org/2000/svg" xmlns:xlink="http://www.w3.org/1999/xlink" width="55pt" height="55pt" viewBox="0 0 55 55" version="1.1">
<g id="surface759905">
<path style=" stroke:none;fill-rule:nonzero;fill:rgb(0%,44.313725%,73.333333%);fill-opacity:1;" d="M 27.5 2.199219 C 13.539062 2.199219 2.199219 13.539062 2.199219 27.5 C 2.199219 41.460938 13.539062 52.800781 27.5 52.800781 C 41.460938 52.800781 52.800781 41.460938 52.800781 27.5 C 52.800781 13.539062 41.460938 2.199219 27.5 2.199219 Z M 27.5 4.398438 C 40.269531 4.398438 50.601562 14.730469 50.601562 27.5 C 50.601562 40.269531 40.269531 50.601562 27.5 50.601562 C 14.730469 50.601562 4.398438 40.269531 4.398438 27.5 C 4.398438 14.730469 14.730469 4.398438 27.5 4.398438 Z M 38.488281 16.488281 C 38.125 16.496094 37.789062 16.679688 37.589844 16.984375 L 26.367188 33.523438 L 18.347656 26.082031 C 18.0625 25.804688 17.648438 25.707031 17.265625 25.820312 C 16.886719 25.9375 16.597656 26.25 16.511719 26.636719 C 16.425781 27.027344 16.554688 27.429688 16.851562 27.695312 L 26.746094 36.878906 L 39.410156 18.214844 C 39.648438 17.878906 39.675781 17.433594 39.480469 17.070312 C 39.285156 16.703125 38.902344 16.480469 38.488281 16.488281 Z M 38.488281 16.488281 "/>
</g>
</svg>
