<?xml version="1.0" encoding="UTF-8"?>
<svg xmlns="http://www.w3.org/2000/svg" xmlns:xlink="http://www.w3.org/1999/xlink" width="55pt" height="55pt" viewBox="0 0 55 55" version="1.1">
<g id="surface760577">
<path style=" stroke:none;fill-rule:nonzero;fill:rgb(0%,44.313725%,73.333333%);fill-opacity:1;" d="M 54.152344 27.5 C 54.152344 12.78125 42.214844 0.847656 27.5 0.847656 C 12.78125 0.847656 0.847656 12.785156 0.847656 27.5 C 0.847656 42.21875 12.785156 54.152344 27.5 54.152344 C 42.21875 54.152344 54.152344 42.214844 54.152344 27.5 Z M 54.152344 27.5 "/>
<path style=" stroke:none;fill-rule:nonzero;fill:rgb(100%,100%,100%);fill-opacity:1;" d="M 42.171875 18.574219 C 41.550781 16.949219 40.273438 17.207031 38.886719 17.488281 C 38.058594 17.660156 34.375 18.734375 28.5625 24.878906 C 26.148438 27.425781 24.554688 29.453125 23.503906 31 C 22.859375 30.21875 22.128906 29.367188 21.355469 28.605469 C 18.980469 26.230469 16.328125 24.597656 16.21875 24.535156 C 15.113281 23.859375 13.664062 24.203125 12.976562 25.320312 C 12.300781 26.425781 12.644531 27.875 13.75 28.5625 C 13.773438 28.574219 16.046875 29.980469 18.003906 31.945312 C 20.003906 33.945312 21.816406 36.652344 21.839844 36.683594 C 22.28125 37.351562 23.019531 37.738281 23.804688 37.738281 C 23.933594 37.738281 24.074219 37.726562 24.214844 37.703125 C 25.136719 37.542969 25.867188 36.855469 26.09375 35.953125 C 26.105469 35.933594 27.039062 33.34375 31.96875 28.144531 C 35.945312 23.945312 38.597656 22.613281 39.519531 22.246094 C 39.53125 22.246094 39.53125 22.246094 39.554688 22.246094 C 39.554688 22.246094 39.585938 22.234375 39.640625 22.203125 C 39.800781 22.140625 39.886719 22.117188 39.886719 22.117188 C 39.84375 22.128906 39.820312 22.128906 39.820312 22.128906 L 39.820312 22.117188 C 40.25 21.933594 41.046875 21.589844 41.058594 21.582031 C 42.25 21.066406 42.648438 19.777344 42.175781 18.574219 Z M 42.171875 18.574219 "/>
</g>
</svg>
